<svg width="60" height="60" viewBox="0 0 60 60" fill="none" xmlns="http://www.w3.org/2000/svg">
<path fill-rule="evenodd" clip-rule="evenodd" d="M47.4399 22.8404C50.4638 22.3782 53.5265 22.4211 56.3104 23.3623C61.3108 25.0528 61.1482 34.582 56.3104 36.6809C53.7173 37.8059 50.584 37.8306 47.3943 37.2692C49.8594 39.0806 51.9948 41.2767 53.2979 43.9108C55.6383 48.6419 48.7852 55.2652 43.8802 53.3284C41.2511 52.2903 39.018 50.0922 37.1596 47.4398C37.6218 50.4637 37.5789 53.5265 36.6377 56.3104C34.9472 61.3108 25.418 61.1482 23.3191 56.3104C22.1941 53.7174 22.1694 50.5841 22.7308 47.3945C20.9194 49.8595 18.7234 51.9949 16.0893 53.2979C11.3582 55.6383 4.73494 48.7852 6.67165 43.8803C7.70976 41.2511 9.90788 39.0181 12.5603 37.1597C9.53637 37.6218 6.47354 37.579 3.68955 36.6378C-1.31079 34.9473 -1.14824 25.4181 3.68955 23.3192C6.28271 22.1942 9.41605 22.1695 12.6057 22.7309C10.1406 20.9195 8.0052 18.7234 6.70214 16.0893C4.36173 11.3582 11.2148 4.73493 16.1198 6.67164C18.7489 7.70974 20.982 9.90782 22.8404 12.5602C22.3782 9.53631 22.4211 6.47351 23.3623 3.68955C25.0528 -1.31079 34.582 -1.14824 36.6808 3.68955C37.8059 6.28273 37.8306 9.41612 37.2691 12.6058C39.0805 10.1407 41.2766 8.00528 43.9107 6.70222C48.6419 4.36181 55.2651 11.2149 53.3284 16.1199C52.2903 18.749 50.0923 20.982 47.4399 22.8404Z" fill="#AC0000"/>
</svg>
