<svg width="60" height="60" viewBox="0 0 60 60" fill="none" xmlns="http://www.w3.org/2000/svg">
<path fill-rule="evenodd" clip-rule="evenodd" d="M29.9995 0C25.4488 0 21.9873 4.08623 22.7354 8.57502L26.3062 30L22.7354 51.425C21.9873 55.9138 25.4488 60 29.9995 60C34.6708 60 38.1618 55.7068 37.2091 51.1337L32.8062 30L37.2091 8.86632C38.1618 4.29322 34.6708 0 29.9995 0Z" fill="#EC9F0A"/>
<path fill-rule="evenodd" clip-rule="evenodd" d="M0 30.0005C0 34.5513 4.08623 38.0128 8.57502 37.2647L30 33.6938L51.425 37.2647C55.9138 38.0128 60 34.5513 60 30.0005C60 25.3292 55.7068 21.8383 51.1337 22.791L30 27.1938L8.86632 22.791C4.29322 21.8383 0 25.3292 0 30.0005Z" fill="#EC9F0A"/>
<path fill-rule="evenodd" clip-rule="evenodd" d="M8.78704 51.2136C12.0049 54.4315 17.342 53.9897 19.987 50.2867L32.6118 32.612L32.6118 32.6121L50.2866 19.9873C53.9896 17.3423 54.4313 12.0052 51.2135 8.78734C47.9104 5.48424 42.4061 6.0515 39.8461 9.95886L28.0157 28.0159L28.0156 28.0158L9.95856 39.8463C6.0512 42.4063 5.48393 47.9105 8.78704 51.2136Z" fill="#EC9F0A"/>
<path fill-rule="evenodd" clip-rule="evenodd" d="M8.78648 8.78743C5.56864 12.0053 6.01035 17.3424 9.71342 19.9874L27.3881 32.6122L27.3882 32.6121L40.013 50.2868C42.658 53.9898 47.9951 54.4315 51.2129 51.2137C54.516 47.9106 53.9488 42.4063 50.0414 39.8464L31.9844 28.0159L31.9843 28.016L20.1538 9.95895C17.5938 6.0516 12.0896 5.48433 8.78648 8.78743Z" fill="#EC9F0A"/>
<path fill-rule="evenodd" clip-rule="evenodd" d="M29.9996 5C26.2073 5 23.3227 8.40519 23.9461 12.1459L26.9218 29.9999L23.9461 47.854C23.3227 51.5947 26.2073 54.9999 29.9996 54.9999C33.8923 54.9999 36.8014 51.4222 36.0075 47.6113L32.3385 30L36.0075 12.3886C36.8015 8.57768 33.8923 5 29.9996 5Z" fill="#F5F5F5"/>
<path fill-rule="evenodd" clip-rule="evenodd" d="M4.99994 30C4.99994 33.7922 8.40513 36.6769 12.1458 36.0534L29.9999 33.0777H29.9999L47.854 36.0534C51.5947 36.6769 54.9999 33.7922 54.9999 30C54.9999 26.1072 51.4222 23.1981 47.6113 23.992L29.9999 27.6611H29.9999L12.3885 23.992C8.57762 23.1981 4.99994 26.1072 4.99994 30Z" fill="#F5F5F5"/>
<path fill-rule="evenodd" clip-rule="evenodd" d="M12.3225 47.6782C15.0041 50.3598 19.4516 49.9917 21.6558 46.9058L32.1765 32.1769L28.3463 28.3467L13.2988 38.2055C10.0427 40.3388 9.56995 44.9257 12.3225 47.6782ZM47.6779 12.3228C50.3595 15.0043 49.9914 19.4519 46.9055 21.6561L32.1766 32.1767L28.3464 28.3466L38.2051 13.299C40.3385 10.0429 44.9254 9.57019 47.6779 12.3228Z" fill="#F5F5F5"/>
<path fill-rule="evenodd" clip-rule="evenodd" d="M12.3221 12.3225C9.64056 15.004 10.0086 19.4516 13.0945 21.6558L27.8235 32.1765L31.6536 28.3463L21.7949 13.2988C19.6616 10.0426 15.0747 9.56992 12.3221 12.3225ZM47.6775 47.678C44.996 50.3595 40.5484 49.9914 38.3442 46.9055L27.8235 32.1766L31.6537 28.3464L46.7012 38.2052C49.9574 40.3385 50.4301 44.9254 47.6775 47.678Z" fill="#F5F5F5"/>
<path fill-rule="evenodd" clip-rule="evenodd" d="M29.8956 9.16675C26.7512 9.16675 24.3593 11.9902 24.8763 15.0919L27.3436 29.8959L24.8763 44.6999C24.3593 47.8015 26.7512 50.625 29.8956 50.625C33.1233 50.625 35.5355 47.6585 34.8772 44.4986L31.8349 29.8958L34.8772 15.2931C35.5355 12.1332 33.1233 9.16675 29.8956 9.16675Z" fill="#FCC916"/>
<path fill-rule="evenodd" clip-rule="evenodd" d="M9.16669 29.8963C9.16669 33.0407 11.9902 35.4325 15.0918 34.9156L29.8958 32.4482H29.8959L44.6999 34.9156C47.8015 35.4325 50.625 33.0407 50.625 29.8963C50.625 26.6685 47.6585 24.2564 44.4986 24.9147L29.8959 27.9569H29.8958L15.2931 24.9147C12.1332 24.2564 9.16669 26.6685 9.16669 29.8963Z" fill="#FCC916"/>
<path fill-rule="evenodd" clip-rule="evenodd" d="M15.2384 44.5538C17.4618 46.7772 21.1496 46.472 22.9772 43.9133L31.7006 31.7006L28.5248 28.5247L16.0479 36.6993C13.348 38.4682 12.956 42.2714 15.2384 44.5538ZM44.5538 15.2382C46.7772 17.4616 46.472 21.1494 43.9133 22.977L31.7006 31.7004L28.5247 28.5246L36.6993 16.0477C38.4682 13.3478 42.2714 12.9558 44.5538 15.2382Z" fill="#FCC916"/>
<path fill-rule="evenodd" clip-rule="evenodd" d="M15.238 15.2383C13.0146 17.4617 13.3198 21.1495 15.8785 22.9772L28.0912 31.7005L31.2671 28.5247L23.0925 16.0478C21.3237 13.3479 17.5204 12.9559 15.238 15.2383ZM44.5535 44.5539C42.3301 46.7774 38.6423 46.4721 36.8146 43.9134L28.0913 31.7007L31.2671 28.5249L43.744 36.6994C46.4439 38.4683 46.8359 42.2716 44.5535 44.5539Z" fill="#FCC916"/>
</svg>
