<svg width="60" height="60" viewBox="0 0 60 60" fill="none" xmlns="http://www.w3.org/2000/svg">
<path fill-rule="evenodd" clip-rule="evenodd" d="M29.9996 0C25.4488 0 21.9873 4.08623 22.7354 8.57502L26.3062 30L22.7354 51.425C21.9873 55.9138 25.4488 60 29.9996 60C34.6709 60 38.1618 55.7068 37.2091 51.1337L32.8062 30L37.2091 8.86632C38.1618 4.29322 34.6708 0 29.9996 0Z" fill="#2C1C6E"/>
<path fill-rule="evenodd" clip-rule="evenodd" d="M0 30.0005C0 34.5513 4.08623 38.0128 8.57502 37.2647L30 33.6938L51.425 37.2647C55.9138 38.0128 60 34.5513 60 30.0005C60 25.3292 55.7068 21.8383 51.1337 22.791L30 27.1938L8.86632 22.791C4.29322 21.8383 0 25.3292 0 30.0005Z" fill="#2C1C6E"/>
<path fill-rule="evenodd" clip-rule="evenodd" d="M8.78704 51.2136C12.0049 54.4315 17.342 53.9897 19.987 50.2867L32.6118 32.612L32.6118 32.6121L50.2866 19.9873C53.9896 17.3423 54.4313 12.0052 51.2135 8.78734C47.9104 5.48424 42.4061 6.0515 39.8461 9.95886L28.0157 28.0159L28.0156 28.0158L9.95856 39.8463C6.0512 42.4063 5.48393 47.9105 8.78704 51.2136Z" fill="#2C1C6E"/>
<path fill-rule="evenodd" clip-rule="evenodd" d="M8.78648 8.78768C5.56864 12.0055 6.01035 17.3426 9.71342 19.9877L27.3881 32.6124L27.3882 32.6124L40.0129 50.287C42.6579 53.9901 47.995 54.4318 51.2129 51.2139C54.516 47.9108 53.9487 42.4066 50.0414 39.8466L31.9843 28.0161L31.9843 28.0162L20.1538 9.9592C17.5938 6.05184 12.0896 5.48457 8.78648 8.78768Z" fill="#2C1C6E"/>
<path fill-rule="evenodd" clip-rule="evenodd" d="M29.9996 5C26.2074 5 23.3228 8.40519 23.9462 12.1459L26.9219 30L23.9462 47.854C23.3228 51.5947 26.2074 54.9999 29.9996 54.9999C33.8924 54.9999 36.8015 51.4222 36.0076 47.6113L32.3386 29.9999L36.0076 12.3886C36.8015 8.57768 33.8924 5 29.9996 5Z" fill="#5335CC"/>
<path fill-rule="evenodd" clip-rule="evenodd" d="M5 30C5 33.7922 8.40519 36.6769 12.1459 36.0534L30 33.0777L47.8541 36.0534C51.5948 36.6769 55 33.7922 55 30C55 26.1072 51.4223 23.1981 47.6114 23.992L30 27.6611L12.3886 23.992C8.57768 23.1981 5 26.1072 5 30Z" fill="#5335CC"/>
<path fill-rule="evenodd" clip-rule="evenodd" d="M12.3226 47.6782C15.0041 50.3598 19.4517 49.9917 21.6559 46.9058L32.1765 32.1769L28.3464 28.3467L13.2988 38.2055C10.0427 40.3388 9.56998 44.9257 12.3226 47.6782ZM47.6779 12.3228C50.3595 15.0043 49.9914 19.4519 46.9055 21.6561L32.1766 32.1767L28.3464 28.3466L38.2051 13.299C40.3385 10.0429 44.9254 9.57019 47.6779 12.3228Z" fill="#5335CC"/>
<path fill-rule="evenodd" clip-rule="evenodd" d="M12.3221 12.3225C9.6406 15.004 10.0087 19.4516 13.0946 21.6558L27.8235 32.1765L31.6537 28.3463L21.7949 13.2988C19.6616 10.0426 15.0747 9.5699 12.3221 12.3225ZM47.6775 47.678C44.996 50.3595 40.5484 49.9914 38.3442 46.9055L27.8235 32.1766L31.6537 28.3464L46.7012 38.2052C49.9574 40.3385 50.4301 44.9254 47.6775 47.678Z" fill="#5335CC"/>
<path fill-rule="evenodd" clip-rule="evenodd" d="M29.8955 9.16675C26.7511 9.16675 24.3593 11.9902 24.8762 15.0919L27.3435 29.8958L24.8762 44.6999C24.3593 47.8015 26.7511 50.625 29.8955 50.625C33.1232 50.625 35.5354 47.6585 34.8771 44.4986L31.8349 29.8959L34.8771 15.2931C35.5354 12.1332 33.1233 9.16675 29.8955 9.16675Z" fill="#7859F2"/>
<path fill-rule="evenodd" clip-rule="evenodd" d="M9.16666 29.8963C9.16666 33.0407 11.9901 35.4325 15.0918 34.9156L29.8958 32.4482L29.8958 27.9569L15.293 24.9147C12.1331 24.2564 9.16666 26.6685 9.16666 29.8963ZM50.625 29.8963C50.625 33.0407 47.8015 35.4325 44.6999 34.9156L29.8958 32.4482L29.8958 27.9569L44.4986 24.9147C47.6585 24.2564 50.625 26.6685 50.625 29.8963Z" fill="#7859F2"/>
<path fill-rule="evenodd" clip-rule="evenodd" d="M15.2383 44.5538C17.4617 46.7772 21.1495 46.472 22.9772 43.9133L31.7006 31.7006L28.5247 28.5247L16.0478 36.6993C13.3479 38.4682 12.9559 42.2714 15.2383 44.5538ZM44.5538 15.2382C46.7772 17.4616 46.472 21.1494 43.9133 22.977L31.7006 31.7004L28.5247 28.5246L36.6993 16.0477C38.4682 13.3478 42.2714 12.9558 44.5538 15.2382Z" fill="#7859F2"/>
<path fill-rule="evenodd" clip-rule="evenodd" d="M15.238 15.2383C13.0145 17.4617 13.3198 21.1495 15.8785 22.9772L28.0912 31.7005L31.267 28.5247L23.0925 16.0478C21.3236 13.3479 17.5203 12.9559 15.238 15.2383ZM44.5534 44.5539C42.33 46.7773 38.6422 46.4721 36.8146 43.9134L28.0912 31.7007L31.267 28.5248L43.7439 36.6994C46.4438 38.4683 46.8358 42.2716 44.5534 44.5539Z" fill="#7859F2"/>
</svg>
