<svg width="50" height="70" viewBox="0 0 50 70" fill="none" xmlns="http://www.w3.org/2000/svg">
<path fill-rule="evenodd" clip-rule="evenodd" d="M43.5898 10.2765C43.5898 15.9256 39.6021 20.5101 34.6689 20.5527C33.6198 24.8979 30.1368 28.089 26.0018 28.089C21.8667 28.089 18.3837 24.8979 17.3346 20.5526C12.4065 20.5031 8.42493 15.9213 8.42493 10.2765C8.42493 4.60094 12.45 0 17.4152 0C21.4566 0 24.8753 3.04833 26.0074 7.24326C27.1394 3.04833 30.5581 0 34.5996 0C39.5647 0 43.5898 4.60094 43.5898 10.2765Z" fill="white"/>
<rect width="2.90576" height="5.49451" rx="1.45288" transform="matrix(0 -1 -1 0 5.49451 31.9635)" fill="black"/>
<rect width="2.7924" height="9.54303" rx="1.3962" transform="matrix(1 0 -0.0536496 -0.99856 27.0518 49.5859)" fill="black"/>
<rect width="2.78832" height="9.55458" rx="1.39416" transform="matrix(-0.851148 -0.524925 -0.482776 0.875744 23.077 41.3695)" fill="black"/>
<rect width="46.337" height="25.5707" rx="12.7854" transform="matrix(-1 0 0 1 50 17.4346)" fill="#FCC916"/>
<rect width="5.49451" height="25.5707" transform="matrix(-1 0 0 1 34.7985 17.4346)" fill="black"/>
<rect width="5.49451" height="25.5707" transform="matrix(-1 0 0 1 25.0916 17.4346)" fill="black"/>
<path d="M15.3846 17.4346V17.4346C8.91097 17.4346 3.66303 22.6825 3.66303 29.1562V31.2837C3.66303 37.7573 8.91097 43.0053 15.3846 43.0053V43.0053V17.4346Z" fill="black"/>
<path d="M40.2931 29.8324C40.2931 31.0093 41.113 29.8324 42.1246 29.8324C43.1361 29.8324 43.9561 31.0093 43.9561 29.8324C43.9561 28.6556 43.1361 27.7015 42.1246 27.7015C41.113 27.7015 40.2931 28.6556 40.2931 29.8324Z" fill="black"/>
<ellipse cx="28.0092" cy="56.4144" rx="4.86111" ry="4.375" fill="#FCC916"/>
<path d="M21.275 59.1174H34.7223V63.2764C34.7223 66.9897 31.712 70 27.9986 70V70C24.2852 70 21.275 66.9897 21.275 63.2764V59.1174Z" fill="#D99003"/>
<path d="M22.6198 55.5049C22.6198 55.5049 19.1598 48.4456 27.7125 48.1366C36.2288 47.8288 33.7309 55.5049 33.7309 55.5049" stroke="black" stroke-width="3"/>
<rect x="19.9074" y="55.2632" width="16.4103" height="4.30769" rx="2.15385" fill="#EC9F0A"/>
</svg>
