<svg width="50" height="50" viewBox="0 0 50 50" fill="none" xmlns="http://www.w3.org/2000/svg">
<path fill-rule="evenodd" clip-rule="evenodd" d="M6.41028 10.3623C6.41028 16.0586 10.3979 20.6813 15.3312 20.7243C16.3803 25.1058 19.8633 28.3236 23.9983 28.3236C28.1334 28.3236 31.6164 25.1058 32.6655 20.7242C37.5935 20.6743 41.5751 16.0542 41.5751 10.3623C41.5751 4.63935 37.5501 0 32.5849 0C28.5434 0 25.1248 3.07378 23.9927 7.30373C22.8606 3.07377 19.442 0 15.4005 0C10.4353 0 6.41028 4.63935 6.41028 10.3623Z" fill="white"/>
<rect x="44.5055" y="32.2302" width="2.93003" height="5.49451" rx="1.46501" transform="rotate(-90 44.5055 32.2302)" fill="black"/>
<rect width="2.7924" height="9.62249" rx="1.3962" transform="matrix(1 0 -0.0532066 0.998583 20.6678 40.3911)" fill="black"/>
<rect width="2.7924" height="9.62249" rx="1.3962" transform="matrix(1 0 -0.0532066 0.998583 29.2759 40.3911)" fill="black"/>
<rect y="17.5801" width="46.337" height="25.7842" rx="12.8921" fill="#FCC916"/>
<rect x="15.2014" y="17.5801" width="5.49451" height="25.7842" fill="black"/>
<rect x="24.9084" y="17.5801" width="5.49451" height="25.7842" fill="black"/>
<path d="M34.6154 17.5801V17.5801C41.089 17.5801 46.337 22.828 46.337 29.3017V31.6427C46.337 38.1164 41.089 43.3643 34.6154 43.3643V43.3643V17.5801Z" fill="black"/>
<path d="M9.70695 30.0815C9.70695 31.2682 8.88696 30.0815 7.87545 30.0815C6.86394 30.0815 6.04395 31.2682 6.04395 30.0815C6.04395 28.8949 6.86394 27.9329 7.87545 27.9329C8.88696 27.9329 9.70695 28.8949 9.70695 30.0815Z" fill="black"/>
</svg>
