<svg width="50" height="50" viewBox="0 0 50 50" fill="none" xmlns="http://www.w3.org/2000/svg">
<path fill-rule="evenodd" clip-rule="evenodd" d="M6.41026 10.3309C6.41026 16.0098 10.3979 20.6186 15.3311 20.6614C16.3802 25.0297 19.8632 28.2377 23.9983 28.2377C28.1333 28.2377 31.6164 25.0296 32.6654 20.6613C37.5935 20.6116 41.5751 16.0055 41.5751 10.3309C41.5751 4.62528 37.55 0 32.5849 0C28.5434 0 25.1248 3.06443 23.9927 7.28154C22.8606 3.06443 19.442 0 15.4005 0C10.4353 0 6.41026 4.62528 6.41026 10.3309Z" fill="white" />
<rect x="44.5055" y="32.1325" width="2.92114" height="5.49451" rx="1.46057" transform="rotate(-90 44.5055 32.1325)" fill="black"/>
<rect width="2.7924" height="9.59338" rx="1.3962" transform="matrix(0.849907 -0.526933 0.480824 0.876817 18.315 41.5884)" fill="black"/>
<rect width="2.7924" height="9.59338" rx="1.3962" transform="matrix(0.849907 -0.526933 0.480824 0.876817 26.9231 41.5884)" fill="black"/>
<rect y="17.5268" width="46.337" height="25.706" rx="12.853" fill="#FCC916"/>
<rect x="15.2015" y="17.5268" width="5.49451" height="25.706" fill="black"/>
<rect x="24.9084" y="17.5268" width="5.49451" height="25.706" fill="black"/>
<path d="M34.6154 17.5268V17.5268C41.0891 17.5268 46.337 22.7748 46.337 29.2484V31.5112C46.337 37.9849 41.0891 43.2328 34.6154 43.2328V43.2328V17.5268Z" fill="black"/>
<ellipse cx="7.87546" cy="29.9903" rx="1.8315" ry="2.14217" fill="black"/>
</svg>
